<svg xmlns="http://www.w3.org/2000/svg" viewBox="0 0 799.14 98.64"><defs><style>.cls-1,.cls-6{fill:#d1d3d4;}.cls-2,.cls-3,.cls-7{fill:#f37021;}.cls-3,.cls-4,.cls-5,.cls-7,.cls-8{isolation:isolate;font-family:Space-Cruiser, Space Cruiser;}.cls-3,.cls-4,.cls-5{font-size:75.36px;}.cls-3,.cls-4{letter-spacing:-0.01em;}.cls-4,.cls-8{fill:none;}.cls-4{stroke:#939598;stroke-width:0.25px;}.cls-4,.cls-6,.cls-8{stroke-miterlimit:10;}.cls-5{fill:#58595b;}.cls-6,.cls-8{stroke:#58595b;}.cls-7,.cls-8{font-size:41.88px;letter-spacing:-0.02em;}.cls-8{stroke-width:0.5px;}</style></defs><title>Layer 1-2</title><g id="Layer_2" data-name="Layer 2"><g id="Layer_1-2" data-name="Layer 1"><g id="Layer_1-2-2" data-name="Layer 1-2"><rect class="cls-1" x="26.99" y="17.25" width="486.62" height="19.68"/><rect class="cls-2" x="495.89" y="59.36" width="276.33" height="21.53"/><text class="cls-3" transform="translate(104.9 80.45)">moNiNo</text><text class="cls-4" transform="translate(104.9 80.45)">moNiNo</text><text class="cls-5" transform="translate(478.94 80.92)">tooLs</text><path class="cls-6" d="M1,53.39,5.05,56.3A7.89,7.89,0,0,0,9,45.84a7.91,7.91,0,0,0-6.54-4.6c1.25-7.18,8.13-19.69,8.13-19.69l1.74-3.35.6,4.53a7.89,7.89,0,0,0,9-12.29c5.55-3.92,19-8.14,19-8.14L44.48,1,42.07,4.46a7.87,7.87,0,0,0,7.39,5.18,7.92,7.92,0,0,0,7.89-7.3c7.24,1.2,20.45,8.38,20.45,8.38l3.42,1.6-5.63,1A7.9,7.9,0,0,0,88.2,21.53c4.15,5.75,8.54,20.14,8.54,20.14l1,3.63-4-3.3a7.91,7.91,0,0,0,2.89,15c-1.16,7.29-8,20.16-8,20.16l-1.89,3.27-.42-4.84a7.9,7.9,0,0,0-8.94,12.6c-5.54,4-19.14,8.41-19.14,8.41l-3.62,1.1,2.36-3a7.89,7.89,0,0,0-15.38,1.84c-7.38-1.23-20.69-8.63-20.69-8.63L17.61,86l5.55-.49A7.92,7.92,0,0,0,10.43,77C6.32,71.14,2.24,57,2.24,57Z"/><text class="cls-7" transform="translate(16.11 66.12)">mt</text><text class="cls-8" transform="translate(16.11 66.12)">mt</text></g></g></g></svg>