<svg xmlns="http://www.w3.org/2000/svg" viewBox="0 0 296.16 102.89"><defs><style>.cls-1,.cls-3,.cls-6{fill:#d1d3d4;}.cls-2,.cls-4,.cls-5{fill:#f37021;}.cls-3{stroke:#fff;}.cls-3,.cls-4,.cls-5{stroke-miterlimit:10;}.cls-4{font-size:36.67px;stroke:#939598;stroke-width:0.25px;letter-spacing:-0.01em;}.cls-4,.cls-5,.cls-6{font-family:Space-Cruiser, Space Cruiser;}.cls-5{font-size:43.71px;stroke:#58595b;stroke-width:0.5px;letter-spacing:-0.03em;}.cls-6{font-size:43.08px;}</style></defs><title>logo2</title><g id="Layer_2" data-name="Layer 2"><g id="Layer_1-2" data-name="Layer 1"><rect class="cls-1" x="37.84" y="19" width="244.44" height="9.57"/><rect class="cls-2" x="37.55" y="76.59" width="244.44" height="10.48"/><path class="cls-3" d="M1,55.68l4.24,3a8.24,8.24,0,0,0,4.81-7.49A8.28,8.28,0,0,0,2.48,43C3.78,35.51,11,22.45,11,22.45L12.79,19l.62,4.74a8.24,8.24,0,0,0,9.42-12.84c5.79-4.09,19.86-8.49,19.86-8.49L46.4,1l-2.52,3.6A8.23,8.23,0,0,0,51.59,10,8.27,8.27,0,0,0,59.83,2.4c7.56,1.25,21.34,8.75,21.34,8.75l3.58,1.67-5.88,1A8.24,8.24,0,0,0,92,22.42c4.33,6,8.91,21,8.91,21L102,47.23l-4.22-3.42a8.25,8.25,0,0,0,3,15.67c-1.22,7.6-8.37,21-8.37,21l-2,3.41L90,78.88A8.25,8.25,0,0,0,80.7,92c-5.78,4.16-20,8.77-20,8.77L57,102l2.46-3.14a8.24,8.24,0,0,0-16.06,1.92c-7.69-1.28-21.59-9-21.59-9l-3.41-2,5.79-.51a8.26,8.26,0,0,0-13.28-8.95C6.56,74.21,2.3,59.4,2.3,59.4Z"/><text class="cls-4" transform="translate(113.11 49.75)">moNiNo</text><text class="cls-5" transform="translate(16.79 68.97)">mt</text><text class="cls-6" transform="translate(113.11 87.08)">tooLs</text></g></g></svg>