<?xml version="1.0" encoding="utf-8"?>
<!-- Generator: Adobe Illustrator 22.1.0, SVG Export Plug-In . SVG Version: 6.00 Build 0)  -->
<svg version="1.1" id="Layer_1" xmlns="http://www.w3.org/2000/svg" xmlns:xlink="http://www.w3.org/1999/xlink" x="0px" y="0px"
	 viewBox="0 0 296.2 102.9" style="enable-background:new 0 0 296.2 102.9;" xml:space="preserve">
<style type="text/css">
	.st0{fill:#D1D3D4;}
	.st1{fill:#F37021;}
	.st2{fill:#D1D3D4;stroke:#FFFFFF;stroke-miterlimit:10;}
	.st3{enable-background:new    ;}
	.st4{fill:none;stroke:#939598;stroke-width:0.25;stroke-miterlimit:10;}
	.st5{fill:none;stroke:#58595B;stroke-width:0.5;stroke-miterlimit:10;}
</style>
<title>logo2</title>
<g id="Layer_2_1_">
	<g id="Layer_1-2">
		<rect x="37.8" y="19" class="st0" width="244.4" height="9.6"/>
		<rect x="37.5" y="76.6" class="st1" width="244.4" height="10.5"/>
		<path class="st2" d="M1,55.7l4.2,3c2.9-1.3,4.8-4.3,4.8-7.5c0-4.3-3.3-7.8-7.6-8.2C3.8,35.5,11,22.5,11,22.5l1.8-3.5l0.6,4.7
			c4.2,1.7,9-0.4,10.7-4.7c1.1-2.8,0.6-5.9-1.3-8.2c5.8-4.1,19.9-8.5,19.9-8.5L46.4,1l-2.5,3.6c1.2,3.2,4.3,5.4,7.7,5.4
			c4.3,0,7.9-3.3,8.2-7.6c7.6,1.3,21.3,8.8,21.3,8.8l3.6,1.7l-5.9,1c-1.2,4.4,1.4,8.9,5.7,10.1c2.6,0.7,5.3,0.1,7.4-1.5
			c4.3,6,8.9,21,8.9,21l1.1,3.8l-4.2-3.4c-4.1,2-5.8,6.9-3.9,11c1.3,2.7,3.9,4.5,6.9,4.7c-1.2,7.6-8.4,21-8.4,21l-2,3.4l-0.4-5
			c-4.2-1.7-9,0.3-10.8,4.5c-1.2,2.9-0.6,6.3,1.5,8.6c-5.8,4.2-20,8.8-20,8.8L57,102l2.5-3.1c-1.4-4.3-6-6.7-10.4-5.3
			c-3.2,1-5.4,3.9-5.7,7.2c-7.7-1.3-21.6-9-21.6-9l-3.4-2l5.8-0.5c1.5-4.3-0.7-9-5-10.6c-2.9-1-6-0.4-8.3,1.6
			c-4.4-6.1-8.6-20.9-8.6-20.9L1,55.7z"/>
		<g class="st3">
			<path class="st1" d="M113.2,27.8v-8.3c0,0,0.2-0.2,0.7-0.6h7.8l6.7,10.1h0.3l6.7-10.1h7.7c0.5,0.3,0.7,0.5,0.7,0.6v15.7
				c0,0.4-0.1,0.7-0.2,0.9c-0.1,0.2-0.2,0.4-0.3,0.5c-0.1,0.1-0.3,0.2-0.4,0.2c-0.2,0-0.3,0.1-0.5,0.2h-7.2l-6.6,9.6l-6.7-9.6h-7.3
				c-0.2-0.1-0.4-0.1-0.5-0.2s-0.3-0.1-0.4-0.2c-0.1-0.1-0.2-0.3-0.3-0.5c-0.1-0.2-0.2-0.5-0.2-0.9V27.8z M122.2,49.5
				c0,0-0.2,0.1-0.4,0.2h-7.6c-0.2,0-0.4-0.1-0.7-0.3s-0.4-0.4-0.4-0.6V40c0,0,0-0.1,0.1-0.2c0-0.1,0.1-0.2,0.2-0.3
				c0.1-0.1,0.2-0.2,0.3-0.3c0.1-0.1,0.2-0.1,0.3-0.1h7.5c0,0,0.1,0,0.2,0.1c0.1,0,0.2,0.1,0.2,0.1c0.1,0.1,0.3,0.2,0.5,0.4
				c0.2,0.2,0.3,0.3,0.3,0.3v9.2c0,0.1-0.1,0.2-0.2,0.3C122.3,49.4,122.2,49.5,122.2,49.5z M134.9,49.5c0,0-0.1-0.1-0.2-0.3
				c-0.2-0.1-0.2-0.2-0.2-0.3v-9.2c0,0,0.1-0.1,0.3-0.3c0.2-0.2,0.3-0.3,0.5-0.4c0,0,0.1,0,0.2-0.1c0.1,0,0.2-0.1,0.2-0.1h7.6
				c0.1,0,0.2,0,0.3,0.1c0.1,0.1,0.2,0.2,0.3,0.3c0.1,0.1,0.2,0.2,0.2,0.3c0.1,0.1,0.1,0.2,0.1,0.2v8.8c0,0.2-0.1,0.4-0.4,0.6
				c-0.3,0.2-0.5,0.3-0.7,0.3h-7.6C135.1,49.6,134.9,49.6,134.9,49.5z"/>
			<path class="st1" d="M147.3,26.3c0.4-1.1,0.9-2.1,1.5-3s1.4-1.7,2.3-2.3c0.9-0.7,1.9-1.2,3-1.5c0.4-0.2,0.8-0.3,1.1-0.3
				c0.3-0.1,0.7-0.2,1.3-0.3h3.6c0.2,0.1,0.4,0.3,0.6,0.4c0.2,0.2,0.2,0.3,0.2,0.4v8.5c-0.5,0.2-1,0.4-1.4,0.4
				c-0.1,0-0.3,0.2-0.4,0.4c-0.1,0.2-0.2,0.5-0.3,0.7c0,0.1,0,0.2-0.1,0.3c0,0.1-0.1,0.2-0.1,0.3c0,0.1,0,0.4-0.1,0.7
				c0,0.3-0.1,0.8-0.1,1.4c0,0.1,0,0.2,0,0.4v0.4v1.9v0.4c0,0.2,0,0.4,0,0.5c0.1,1.3,0.2,2,0.3,2.2c0,0.1,0.1,0.2,0.2,0.3
				c0.1,0.1,0.2,0.3,0.3,0.4c0.2,0.3,0.4,0.5,0.6,0.7c0.2,0.2,0.4,0.3,0.5,0.4s0.3,0.1,0.4,0.2c0.1,0,0.1,0.1,0.1,0.2v8.5
				c0,0,0,0.1-0.1,0.2c-0.1,0.1-0.2,0.1-0.3,0.2c-0.1,0.1-0.2,0.1-0.4,0.2h-4c-0.1,0-0.8-0.2-1.9-0.5c-1.1-0.3-2.1-0.8-3-1.4
				c-0.9-0.6-1.7-1.4-2.3-2.3c-0.6-0.9-1.1-1.9-1.5-3c-0.4-1.1-0.5-2.2-0.5-3.4c0-1.5,0-2.8,0-3.9c0-1.1,0-2.1,0-2.9s0-1.5,0-1.8
				c0-0.3,0-0.5,0-0.6v-0.3C146.7,28.5,146.9,27.4,147.3,26.3z M177,39.2c0,1.1-0.2,2.3-0.5,3.4s-0.9,2.1-1.5,3
				c-0.6,0.9-1.4,1.7-2.3,2.3c-0.9,0.6-1.9,1.1-3,1.4c-0.6,0.2-1.1,0.3-1.4,0.4s-0.5,0.1-0.6,0.1h-3.9c-0.1,0-0.2-0.1-0.5-0.2
				c-0.2-0.1-0.4-0.3-0.4-0.3v-8.5c0-0.1,0-0.2,0.1-0.2c0.1,0,0.1,0,0.2-0.1s0.2-0.1,0.3-0.1c0.1-0.1,0.3-0.2,0.4-0.3
				c0.2-0.2,0.4-0.4,0.6-0.8c0.2-0.3,0.3-0.5,0.5-0.7c0.1-0.2,0.2-0.9,0.3-2.2c0-0.1,0-0.3,0-0.5v-0.4v-1.9v-0.4c0-0.2,0-0.3,0-0.4
				c0-0.6,0-1-0.1-1.4c0-0.4-0.1-0.6-0.1-0.7c0-0.2-0.1-0.5-0.2-0.8s-0.2-0.6-0.3-0.8c0-0.1-0.1-0.2-0.2-0.3c-0.1,0-0.3-0.1-0.4-0.1
				c-0.2,0-0.3,0-0.5-0.1c-0.2,0-0.3,0-0.4-0.1c-0.1-0.1-0.1-0.1-0.1-0.2v-8.5c0-0.1,0.1-0.2,0.2-0.4c0.2-0.2,0.4-0.3,0.6-0.4h3.6
				c0.6,0.1,1,0.2,1.3,0.3c0.3,0.1,0.7,0.2,1.1,0.3c1.1,0.3,2,0.8,2.9,1.5c0.9,0.7,1.7,1.4,2.3,2.3s1.2,1.9,1.5,2.9
				c0.4,1.1,0.6,2.2,0.6,3.4V39.2z"/>
			<path class="st1" d="M180.7,49.8c-0.3,0-0.6-0.1-0.8-0.4c-0.2-0.2-0.3-0.5-0.3-0.9V20.3c0.2-0.4,0.4-0.7,0.7-1
				c0.3-0.2,0.5-0.4,0.8-0.4h10c0.3,0,0.6,0.1,0.8,0.1c0.2,0.1,0.4,0.2,0.7,0.5v29c-0.2,0.3-0.4,0.6-0.6,0.8
				c-0.2,0.2-0.5,0.3-0.8,0.5H180.7z M209.9,48.4c0,0.3-0.2,0.6-0.5,0.9c-0.3,0.3-0.5,0.5-0.8,0.5h-9.5c-0.4,0-0.6-0.1-0.8-0.3
				c-0.2-0.2-0.3-0.5-0.3-0.8v-18c-0.2-0.3-0.5-0.6-0.7-1c-0.2-0.4-0.5-0.7-0.8-0.8c-0.3-0.2-0.8-0.4-1.5-0.4
				c-0.3,0-0.5-0.1-0.6-0.1c-0.1-0.1-0.1-0.1-0.1-0.2v-8.5c0-0.1,0.1-0.2,0.4-0.3c0.3-0.1,0.5-0.2,0.7-0.3h4
				c0.5,0.1,0.9,0.2,1.2,0.2c0.3,0.1,0.7,0.1,1.2,0.2c1.2,0.3,2.3,0.8,3.3,1.4c1,0.7,1.8,1.4,2.6,2.3c0.7,0.9,1.3,1.9,1.7,3
				s0.6,2.2,0.6,3.3L209.9,48.4z"/>
			<path class="st1" d="M225.5,20.3v28.5c0,0.2-0.1,0.5-0.4,0.6c-0.3,0.2-0.5,0.3-0.7,0.3h-11c-0.1,0-0.3-0.1-0.6-0.2
				c-0.2-0.1-0.4-0.3-0.4-0.5V20.2c0.1-0.4,0.3-0.7,0.5-0.9c0.3-0.2,0.5-0.4,0.8-0.4h10.5c0.3,0.1,0.6,0.3,0.8,0.5s0.3,0.5,0.3,0.8
				L225.5,20.3z"/>
			<path class="st1" d="M229,49.8c-0.3,0-0.6-0.1-0.8-0.4c-0.2-0.2-0.3-0.5-0.3-0.9V20.3c0.2-0.4,0.4-0.7,0.7-1s0.5-0.4,0.8-0.4h10
				c0.3,0,0.6,0.1,0.8,0.1c0.2,0.1,0.4,0.2,0.7,0.5v29c-0.2,0.3-0.4,0.6-0.6,0.8c-0.2,0.2-0.5,0.3-0.8,0.5H229z M258.2,48.4
				c0,0.3-0.2,0.6-0.5,0.9s-0.5,0.5-0.8,0.5h-9.5c-0.4,0-0.6-0.1-0.8-0.3s-0.3-0.5-0.3-0.8v-18c-0.2-0.3-0.5-0.6-0.7-1
				c-0.2-0.4-0.5-0.7-0.8-0.8c-0.3-0.2-0.8-0.4-1.5-0.4c-0.3,0-0.5-0.1-0.6-0.1c-0.1-0.1-0.1-0.1-0.1-0.2v-8.5
				c0-0.1,0.1-0.2,0.4-0.3c0.3-0.1,0.5-0.2,0.7-0.3h4c0.5,0.1,0.9,0.2,1.2,0.2c0.3,0.1,0.7,0.1,1.2,0.2c1.2,0.3,2.3,0.8,3.3,1.4
				s1.8,1.4,2.6,2.3c0.7,0.9,1.3,1.9,1.7,3s0.6,2.2,0.6,3.3L258.2,48.4z"/>
			<path class="st1" d="M261.3,26.3c0.4-1.1,0.9-2.1,1.5-3s1.4-1.7,2.3-2.3s1.9-1.2,3-1.5c0.4-0.2,0.8-0.3,1.1-0.3
				c0.3-0.1,0.7-0.2,1.3-0.3h3.6c0.2,0.1,0.4,0.3,0.6,0.4c0.2,0.2,0.2,0.3,0.2,0.4v8.5c-0.5,0.2-1,0.4-1.4,0.4
				c-0.1,0-0.3,0.2-0.4,0.4c-0.1,0.2-0.2,0.5-0.3,0.7c0,0.1,0,0.2-0.1,0.3s-0.1,0.2-0.1,0.3c0,0.1,0,0.4-0.1,0.7
				c0,0.3-0.1,0.8-0.1,1.4c0,0.1,0,0.2,0,0.4v0.4v1.9v0.4c0,0.2,0,0.4,0,0.5c0.1,1.3,0.2,2,0.3,2.2c0,0.1,0.1,0.2,0.2,0.3
				c0.1,0.1,0.2,0.3,0.3,0.4c0.2,0.3,0.4,0.5,0.6,0.7s0.4,0.3,0.6,0.4c0.2,0.1,0.3,0.1,0.4,0.2c0.1,0,0.1,0.1,0.1,0.2v8.5
				c0,0,0,0.1-0.1,0.2c-0.1,0.1-0.2,0.1-0.3,0.2c-0.1,0.1-0.2,0.1-0.4,0.2h-4c-0.1,0-0.8-0.2-1.9-0.5c-1.1-0.3-2.1-0.8-3-1.4
				c-0.9-0.6-1.7-1.4-2.3-2.3c-0.6-0.9-1.1-1.9-1.5-3c-0.4-1.1-0.5-2.2-0.5-3.4c0-1.5,0-2.8,0-3.9c0-1.1,0-2.1,0-2.9s0-1.5,0-1.8
				c0-0.3,0-0.5,0-0.6v-0.3C260.8,28.5,261,27.4,261.3,26.3z M291.1,39.2c0,1.1-0.2,2.3-0.5,3.4c-0.4,1.1-0.9,2.1-1.5,3
				s-1.4,1.7-2.3,2.3c-0.9,0.6-1.9,1.1-3,1.4c-0.6,0.2-1.1,0.3-1.4,0.4s-0.5,0.1-0.6,0.1h-3.9c-0.1,0-0.2-0.1-0.5-0.2
				c-0.2-0.1-0.4-0.3-0.4-0.3v-8.5c0-0.1,0-0.2,0.1-0.2c0.1,0,0.1,0,0.2-0.1s0.2-0.1,0.3-0.1c0.1-0.1,0.3-0.2,0.4-0.3
				c0.2-0.2,0.4-0.4,0.6-0.8c0.2-0.3,0.3-0.5,0.5-0.7c0.1-0.2,0.2-0.9,0.3-2.2c0-0.1,0-0.3,0-0.5v-0.4v-1.9v-0.4c0-0.2,0-0.3,0-0.4
				c0-0.6,0-1-0.1-1.4s-0.1-0.6-0.1-0.7c0-0.2-0.1-0.5-0.2-0.8c-0.1-0.3-0.2-0.6-0.3-0.8c0-0.1-0.1-0.2-0.2-0.3
				c-0.1,0-0.3-0.1-0.4-0.1s-0.3,0-0.5-0.1c-0.2,0-0.3,0-0.4-0.1c-0.1-0.1-0.1-0.1-0.1-0.2v-8.5c0-0.1,0.1-0.2,0.2-0.4
				c0.2-0.2,0.4-0.3,0.6-0.4h3.6c0.6,0.1,1,0.2,1.3,0.3c0.3,0.1,0.7,0.2,1.1,0.3c1.1,0.3,2,0.8,2.9,1.5s1.7,1.4,2.3,2.3
				c0.6,0.9,1.2,1.9,1.5,2.9c0.4,1.1,0.5,2.2,0.5,3.4V39.2z"/>
		</g>
		<g class="st3">
			<path class="st4" d="M113.2,27.8v-8.3c0,0,0.2-0.2,0.7-0.6h7.8l6.7,10.1h0.3l6.7-10.1h7.7c0.5,0.3,0.7,0.5,0.7,0.6v15.7
				c0,0.4-0.1,0.7-0.2,0.9c-0.1,0.2-0.2,0.4-0.3,0.5c-0.1,0.1-0.3,0.2-0.4,0.2c-0.2,0-0.3,0.1-0.5,0.2h-7.2l-6.6,9.6l-6.7-9.6h-7.3
				c-0.2-0.1-0.4-0.1-0.5-0.2s-0.3-0.1-0.4-0.2c-0.1-0.1-0.2-0.3-0.3-0.5c-0.1-0.2-0.2-0.5-0.2-0.9V27.8z M122.2,49.5
				c0,0-0.2,0.1-0.4,0.2h-7.6c-0.2,0-0.4-0.1-0.7-0.3s-0.4-0.4-0.4-0.6V40c0,0,0-0.1,0.1-0.2c0-0.1,0.1-0.2,0.2-0.3
				c0.1-0.1,0.2-0.2,0.3-0.3c0.1-0.1,0.2-0.1,0.3-0.1h7.5c0,0,0.1,0,0.2,0.1c0.1,0,0.2,0.1,0.2,0.1c0.1,0.1,0.3,0.2,0.5,0.4
				c0.2,0.2,0.3,0.3,0.3,0.3v9.2c0,0.1-0.1,0.2-0.2,0.3C122.3,49.4,122.2,49.5,122.2,49.5z M134.9,49.5c0,0-0.1-0.1-0.2-0.3
				c-0.2-0.1-0.2-0.2-0.2-0.3v-9.2c0,0,0.1-0.1,0.3-0.3c0.2-0.2,0.3-0.3,0.5-0.4c0,0,0.1,0,0.2-0.1c0.1,0,0.2-0.1,0.2-0.1h7.6
				c0.1,0,0.2,0,0.3,0.1c0.1,0.1,0.2,0.2,0.3,0.3c0.1,0.1,0.2,0.2,0.2,0.3c0.1,0.1,0.1,0.2,0.1,0.2v8.8c0,0.2-0.1,0.4-0.4,0.6
				c-0.3,0.2-0.5,0.3-0.7,0.3h-7.6C135.1,49.6,134.9,49.6,134.9,49.5z"/>
			<path class="st4" d="M147.3,26.3c0.4-1.1,0.9-2.1,1.5-3s1.4-1.7,2.3-2.3c0.9-0.7,1.9-1.2,3-1.5c0.4-0.2,0.8-0.3,1.1-0.3
				c0.3-0.1,0.7-0.2,1.3-0.3h3.6c0.2,0.1,0.4,0.3,0.6,0.4c0.2,0.2,0.2,0.3,0.2,0.4v8.5c-0.5,0.2-1,0.4-1.4,0.4
				c-0.1,0-0.3,0.2-0.4,0.4c-0.1,0.2-0.2,0.5-0.3,0.7c0,0.1,0,0.2-0.1,0.3c0,0.1-0.1,0.2-0.1,0.3c0,0.1,0,0.4-0.1,0.7
				c0,0.3-0.1,0.8-0.1,1.4c0,0.1,0,0.2,0,0.4v0.4v1.9v0.4c0,0.2,0,0.4,0,0.5c0.1,1.3,0.2,2,0.3,2.2c0,0.1,0.1,0.2,0.2,0.3
				c0.1,0.1,0.2,0.3,0.3,0.4c0.2,0.3,0.4,0.5,0.6,0.7c0.2,0.2,0.4,0.3,0.5,0.4s0.3,0.1,0.4,0.2c0.1,0,0.1,0.1,0.1,0.2v8.5
				c0,0,0,0.1-0.1,0.2c-0.1,0.1-0.2,0.1-0.3,0.2c-0.1,0.1-0.2,0.1-0.4,0.2h-4c-0.1,0-0.8-0.2-1.9-0.5c-1.1-0.3-2.1-0.8-3-1.4
				c-0.9-0.6-1.7-1.4-2.3-2.3c-0.6-0.9-1.1-1.9-1.5-3c-0.4-1.1-0.5-2.2-0.5-3.4c0-1.5,0-2.8,0-3.9c0-1.1,0-2.1,0-2.9s0-1.5,0-1.8
				c0-0.3,0-0.5,0-0.6v-0.3C146.7,28.5,146.9,27.4,147.3,26.3z M177,39.2c0,1.1-0.2,2.3-0.5,3.4s-0.9,2.1-1.5,3
				c-0.6,0.9-1.4,1.7-2.3,2.3c-0.9,0.6-1.9,1.1-3,1.4c-0.6,0.2-1.1,0.3-1.4,0.4s-0.5,0.1-0.6,0.1h-3.9c-0.1,0-0.2-0.1-0.5-0.2
				c-0.2-0.1-0.4-0.3-0.4-0.3v-8.5c0-0.1,0-0.2,0.1-0.2c0.1,0,0.1,0,0.2-0.1s0.2-0.1,0.3-0.1c0.1-0.1,0.3-0.2,0.4-0.3
				c0.2-0.2,0.4-0.4,0.6-0.8c0.2-0.3,0.3-0.5,0.5-0.7c0.1-0.2,0.2-0.9,0.3-2.2c0-0.1,0-0.3,0-0.5v-0.4v-1.9v-0.4c0-0.2,0-0.3,0-0.4
				c0-0.6,0-1-0.1-1.4c0-0.4-0.1-0.6-0.1-0.7c0-0.2-0.1-0.5-0.2-0.8s-0.2-0.6-0.3-0.8c0-0.1-0.1-0.2-0.2-0.3c-0.1,0-0.3-0.1-0.4-0.1
				c-0.2,0-0.3,0-0.5-0.1c-0.2,0-0.3,0-0.4-0.1c-0.1-0.1-0.1-0.1-0.1-0.2v-8.5c0-0.1,0.1-0.2,0.2-0.4c0.2-0.2,0.4-0.3,0.6-0.4h3.6
				c0.6,0.1,1,0.2,1.3,0.3c0.3,0.1,0.7,0.2,1.1,0.3c1.1,0.3,2,0.8,2.9,1.5c0.9,0.7,1.7,1.4,2.3,2.3s1.2,1.9,1.5,2.9
				c0.4,1.1,0.6,2.2,0.6,3.4V39.2z"/>
			<path class="st4" d="M180.7,49.8c-0.3,0-0.6-0.1-0.8-0.4c-0.2-0.2-0.3-0.5-0.3-0.9V20.3c0.2-0.4,0.4-0.7,0.7-1
				c0.3-0.2,0.5-0.4,0.8-0.4h10c0.3,0,0.6,0.1,0.8,0.1c0.2,0.1,0.4,0.2,0.7,0.5v29c-0.2,0.3-0.4,0.6-0.6,0.8
				c-0.2,0.2-0.5,0.3-0.8,0.5H180.7z M209.9,48.4c0,0.3-0.2,0.6-0.5,0.9c-0.3,0.3-0.5,0.5-0.8,0.5h-9.5c-0.4,0-0.6-0.1-0.8-0.3
				c-0.2-0.2-0.3-0.5-0.3-0.8v-18c-0.2-0.3-0.5-0.6-0.7-1c-0.2-0.4-0.5-0.7-0.8-0.8c-0.3-0.2-0.8-0.4-1.5-0.4
				c-0.3,0-0.5-0.1-0.6-0.1c-0.1-0.1-0.1-0.1-0.1-0.2v-8.5c0-0.1,0.1-0.2,0.4-0.3c0.3-0.1,0.5-0.2,0.7-0.3h4
				c0.5,0.1,0.9,0.2,1.2,0.2c0.3,0.1,0.7,0.1,1.2,0.2c1.2,0.3,2.3,0.8,3.3,1.4c1,0.7,1.8,1.4,2.6,2.3c0.7,0.9,1.3,1.9,1.7,3
				s0.6,2.2,0.6,3.3L209.9,48.4z"/>
			<path class="st4" d="M225.5,20.3v28.5c0,0.2-0.1,0.5-0.4,0.6c-0.3,0.2-0.5,0.3-0.7,0.3h-11c-0.1,0-0.3-0.1-0.6-0.2
				c-0.2-0.1-0.4-0.3-0.4-0.5V20.2c0.1-0.4,0.3-0.7,0.5-0.9c0.3-0.2,0.5-0.4,0.8-0.4h10.5c0.3,0.1,0.6,0.3,0.8,0.5s0.3,0.5,0.3,0.8
				L225.5,20.3z"/>
			<path class="st4" d="M229,49.8c-0.3,0-0.6-0.1-0.8-0.4c-0.2-0.2-0.3-0.5-0.3-0.9V20.3c0.2-0.4,0.4-0.7,0.7-1s0.5-0.4,0.8-0.4h10
				c0.3,0,0.6,0.1,0.8,0.1c0.2,0.1,0.4,0.2,0.7,0.5v29c-0.2,0.3-0.4,0.6-0.6,0.8c-0.2,0.2-0.5,0.3-0.8,0.5H229z M258.2,48.4
				c0,0.3-0.2,0.6-0.5,0.9s-0.5,0.5-0.8,0.5h-9.5c-0.4,0-0.6-0.1-0.8-0.3s-0.3-0.5-0.3-0.8v-18c-0.2-0.3-0.5-0.6-0.7-1
				c-0.2-0.4-0.5-0.7-0.8-0.8c-0.3-0.2-0.8-0.4-1.5-0.4c-0.3,0-0.5-0.1-0.6-0.1c-0.1-0.1-0.1-0.1-0.1-0.2v-8.5
				c0-0.1,0.1-0.2,0.4-0.3c0.3-0.1,0.5-0.2,0.7-0.3h4c0.5,0.1,0.9,0.2,1.2,0.2c0.3,0.1,0.7,0.1,1.2,0.2c1.2,0.3,2.3,0.8,3.3,1.4
				s1.8,1.4,2.6,2.3c0.7,0.9,1.3,1.9,1.7,3s0.6,2.2,0.6,3.3L258.2,48.4z"/>
			<path class="st4" d="M261.3,26.3c0.4-1.1,0.9-2.1,1.5-3s1.4-1.7,2.3-2.3s1.9-1.2,3-1.5c0.4-0.2,0.8-0.3,1.1-0.3
				c0.3-0.1,0.7-0.2,1.3-0.3h3.6c0.2,0.1,0.4,0.3,0.6,0.4c0.2,0.2,0.2,0.3,0.2,0.4v8.5c-0.5,0.2-1,0.4-1.4,0.4
				c-0.1,0-0.3,0.2-0.4,0.4c-0.1,0.2-0.2,0.5-0.3,0.7c0,0.1,0,0.2-0.1,0.3s-0.1,0.2-0.1,0.3c0,0.1,0,0.4-0.1,0.7
				c0,0.3-0.1,0.8-0.1,1.4c0,0.1,0,0.2,0,0.4v0.4v1.9v0.4c0,0.2,0,0.4,0,0.5c0.1,1.3,0.2,2,0.3,2.2c0,0.1,0.1,0.2,0.2,0.3
				c0.1,0.1,0.2,0.3,0.3,0.4c0.2,0.3,0.4,0.5,0.6,0.7s0.4,0.3,0.6,0.4c0.2,0.1,0.3,0.1,0.4,0.2c0.1,0,0.1,0.1,0.1,0.2v8.5
				c0,0,0,0.1-0.1,0.2c-0.1,0.1-0.2,0.1-0.3,0.2c-0.1,0.1-0.2,0.1-0.4,0.2h-4c-0.1,0-0.8-0.2-1.9-0.5c-1.1-0.3-2.1-0.8-3-1.4
				c-0.9-0.6-1.7-1.4-2.3-2.3c-0.6-0.9-1.1-1.9-1.5-3c-0.4-1.1-0.5-2.2-0.5-3.4c0-1.5,0-2.8,0-3.9c0-1.1,0-2.1,0-2.9s0-1.5,0-1.8
				c0-0.3,0-0.5,0-0.6v-0.3C260.8,28.5,261,27.4,261.3,26.3z M291.1,39.2c0,1.1-0.2,2.3-0.5,3.4c-0.4,1.1-0.9,2.1-1.5,3
				s-1.4,1.7-2.3,2.3c-0.9,0.6-1.9,1.1-3,1.4c-0.6,0.2-1.1,0.3-1.4,0.4s-0.5,0.1-0.6,0.1h-3.9c-0.1,0-0.2-0.1-0.5-0.2
				c-0.2-0.1-0.4-0.3-0.4-0.3v-8.5c0-0.1,0-0.2,0.1-0.2c0.1,0,0.1,0,0.2-0.1s0.2-0.1,0.3-0.1c0.1-0.1,0.3-0.2,0.4-0.3
				c0.2-0.2,0.4-0.4,0.6-0.8c0.2-0.3,0.3-0.5,0.5-0.7c0.1-0.2,0.2-0.9,0.3-2.2c0-0.1,0-0.3,0-0.5v-0.4v-1.9v-0.4c0-0.2,0-0.3,0-0.4
				c0-0.6,0-1-0.1-1.4s-0.1-0.6-0.1-0.7c0-0.2-0.1-0.5-0.2-0.8c-0.1-0.3-0.2-0.6-0.3-0.8c0-0.1-0.1-0.2-0.2-0.3
				c-0.1,0-0.3-0.1-0.4-0.1s-0.3,0-0.5-0.1c-0.2,0-0.3,0-0.4-0.1c-0.1-0.1-0.1-0.1-0.1-0.2v-8.5c0-0.1,0.1-0.2,0.2-0.4
				c0.2-0.2,0.4-0.3,0.6-0.4h3.6c0.6,0.1,1,0.2,1.3,0.3c0.3,0.1,0.7,0.2,1.1,0.3c1.1,0.3,2,0.8,2.9,1.5s1.7,1.4,2.3,2.3
				c0.6,0.9,1.2,1.9,1.5,2.9c0.4,1.1,0.5,2.2,0.5,3.4V39.2z"/>
		</g>
		<g class="st3">
			<path class="st1" d="M16.9,42.8v-9.9c0-0.1,0.3-0.3,0.8-0.7H27l8,12.1h0.3l8-12.1h9.2c0.6,0.4,0.9,0.6,0.9,0.7v18.7
				c-0.1,0.5-0.1,0.9-0.2,1.1c-0.1,0.2-0.2,0.4-0.4,0.6c-0.2,0.1-0.3,0.2-0.5,0.3c-0.2,0.1-0.4,0.1-0.6,0.2h-8.6l-7.9,11.5l-8-11.5
				h-8.7c-0.2-0.1-0.4-0.2-0.6-0.2c-0.2-0.1-0.3-0.2-0.5-0.3c-0.2-0.1-0.3-0.3-0.4-0.6c-0.1-0.3-0.2-0.6-0.2-1.1V42.8z M27.7,68.7
				c-0.1,0-0.2,0.1-0.4,0.3h-9c-0.2,0-0.5-0.1-0.8-0.3c-0.3-0.2-0.5-0.5-0.5-0.7V57.3c0-0.1,0-0.2,0.1-0.3c0.1-0.1,0.1-0.3,0.2-0.4
				c0.1-0.1,0.2-0.3,0.3-0.4c0.1-0.1,0.3-0.2,0.4-0.2h9c0,0,0.1,0,0.2,0.1c0.1,0,0.2,0.1,0.2,0.1c0.1,0.1,0.3,0.3,0.5,0.5
				c0.2,0.2,0.4,0.3,0.3,0.4V68c0,0.1-0.1,0.2-0.3,0.4C27.8,68.5,27.7,68.6,27.7,68.7z M42.8,68.7c0-0.1-0.1-0.2-0.3-0.3
				c-0.2-0.1-0.3-0.3-0.3-0.4V57.1c0,0,0.1-0.1,0.3-0.4c0.2-0.2,0.4-0.4,0.5-0.5c0,0,0.1,0,0.2-0.1c0.1,0,0.2-0.1,0.2-0.1h9
				c0.1,0,0.2,0.1,0.3,0.2c0.1,0.1,0.2,0.2,0.3,0.4c0.1,0.1,0.2,0.3,0.3,0.4s0.1,0.2,0.1,0.3v10.5c0,0.3-0.2,0.5-0.5,0.7
				c-0.3,0.2-0.6,0.3-0.8,0.3h-9C43,68.8,42.8,68.7,42.8,68.7z"/>
			<path class="st1" d="M56,42.8v-9.1c0-0.2,0.1-0.5,0.2-0.7c0.1-0.2,0.3-0.5,0.6-0.8h21.8c0.3,0.4,0.5,0.7,0.7,0.8
				c0.1,0.1,0.2,0.2,0.2,0.3v34.6c0,0.3-0.2,0.6-0.6,0.8c-0.4,0.2-0.7,0.3-0.9,0.3H66c-0.3,0-0.6-0.1-0.8-0.4
				c-0.2-0.3-0.3-0.5-0.3-0.8V45.1c0-0.1,0-0.2-0.1-0.5s-0.3-0.4-0.6-0.7h-7.5c-0.1,0-0.3-0.1-0.4-0.3C56.1,43.4,56,43.1,56,42.8z
				 M81.6,43.9c-0.3,0-0.4-0.2-0.4-0.4V33.1c0-0.1,0.3-0.4,0.9-0.9l6.3,0c0.2,0,0.5,0.1,0.7,0.4c0.3,0.2,0.4,0.5,0.4,0.8V43
				c-0.1,0.4-0.4,0.7-0.7,0.9S88.2,44,87.9,44h-6C81.7,44,81.6,43.9,81.6,43.9z"/>
		</g>
		<g class="st3">
			<path class="st5" d="M16.9,42.8v-9.9c0-0.1,0.3-0.3,0.8-0.7H27l8,12.1h0.3l8-12.1h9.2c0.6,0.4,0.9,0.6,0.9,0.7v18.7
				c-0.1,0.5-0.1,0.9-0.2,1.1c-0.1,0.2-0.2,0.4-0.4,0.6c-0.2,0.1-0.3,0.2-0.5,0.3c-0.2,0.1-0.4,0.1-0.6,0.2h-8.6l-7.9,11.5l-8-11.5
				h-8.7c-0.2-0.1-0.4-0.2-0.6-0.2c-0.2-0.1-0.3-0.2-0.5-0.3c-0.2-0.1-0.3-0.3-0.4-0.6c-0.1-0.3-0.2-0.6-0.2-1.1V42.8z M27.7,68.7
				c-0.1,0-0.2,0.1-0.4,0.3h-9c-0.2,0-0.5-0.1-0.8-0.3c-0.3-0.2-0.5-0.5-0.5-0.7V57.3c0-0.1,0-0.2,0.1-0.3c0.1-0.1,0.1-0.3,0.2-0.4
				c0.1-0.1,0.2-0.3,0.3-0.4c0.1-0.1,0.3-0.2,0.4-0.2h9c0,0,0.1,0,0.2,0.1c0.1,0,0.2,0.1,0.2,0.1c0.1,0.1,0.3,0.3,0.5,0.5
				c0.2,0.2,0.4,0.3,0.3,0.4V68c0,0.1-0.1,0.2-0.3,0.4C27.8,68.5,27.7,68.6,27.7,68.7z M42.8,68.7c0-0.1-0.1-0.2-0.3-0.3
				c-0.2-0.1-0.3-0.3-0.3-0.4V57.1c0,0,0.1-0.1,0.3-0.4c0.2-0.2,0.4-0.4,0.5-0.5c0,0,0.1,0,0.2-0.1c0.1,0,0.2-0.1,0.2-0.1h9
				c0.1,0,0.2,0.1,0.3,0.2c0.1,0.1,0.2,0.2,0.3,0.4c0.1,0.1,0.2,0.3,0.3,0.4s0.1,0.2,0.1,0.3v10.5c0,0.3-0.2,0.5-0.5,0.7
				c-0.3,0.2-0.6,0.3-0.8,0.3h-9C43,68.8,42.8,68.7,42.8,68.7z"/>
			<path class="st5" d="M56,42.8v-9.1c0-0.2,0.1-0.5,0.2-0.7c0.1-0.2,0.3-0.5,0.6-0.8h21.8c0.3,0.4,0.5,0.7,0.7,0.8
				c0.1,0.1,0.2,0.2,0.2,0.3v34.6c0,0.3-0.2,0.6-0.6,0.8c-0.4,0.2-0.7,0.3-0.9,0.3H66c-0.3,0-0.6-0.1-0.8-0.4
				c-0.2-0.3-0.3-0.5-0.3-0.8V45.1c0-0.1,0-0.2-0.1-0.5s-0.3-0.4-0.6-0.7h-7.5c-0.1,0-0.3-0.1-0.4-0.3C56.1,43.4,56,43.1,56,42.8z
				 M81.6,43.9c-0.3,0-0.4-0.2-0.4-0.4V33.1c0-0.1,0.3-0.4,0.9-0.9l6.3,0c0.2,0,0.5,0.1,0.7,0.4c0.3,0.2,0.4,0.5,0.4,0.8V43
				c-0.1,0.4-0.4,0.7-0.7,0.9S88.2,44,87.9,44h-6C81.7,44,81.6,43.9,81.6,43.9z"/>
		</g>
		<g class="st3">
			<path class="st0" d="M113.2,61.3v-9c0-0.2,0.1-0.5,0.2-0.7c0.1-0.2,0.3-0.5,0.6-0.8h21.5c0.3,0.4,0.5,0.7,0.6,0.8
				c0.1,0.1,0.2,0.2,0.2,0.3V86c0,0.3-0.2,0.6-0.6,0.8c-0.4,0.2-0.7,0.3-0.9,0.3h-11.7c-0.3,0-0.5-0.1-0.8-0.4
				c-0.2-0.3-0.3-0.5-0.3-0.8V63.5c0-0.1,0-0.2-0.1-0.5c-0.1-0.2-0.3-0.4-0.6-0.7h-7.4c-0.1,0-0.3-0.1-0.4-0.3
				C113.3,61.9,113.2,61.6,113.2,61.3z M138.4,62.4c-0.3,0-0.4-0.2-0.4-0.4V51.8c0-0.1,0.3-0.4,0.9-0.9l6.2,0c0.2,0,0.5,0.1,0.7,0.4
				c0.3,0.2,0.4,0.5,0.4,0.8v9.5c-0.1,0.4-0.4,0.7-0.7,0.8c-0.3,0.1-0.6,0.2-0.8,0.2h-5.9C138.6,62.4,138.5,62.4,138.4,62.4z"/>
			<path class="st0" d="M150.4,59.6c0.4-1.3,1-2.4,1.8-3.5c0.8-1,1.7-2,2.7-2.7c1-0.8,2.2-1.4,3.5-1.8c0.5-0.2,0.9-0.3,1.3-0.4
				c0.4-0.1,0.9-0.2,1.5-0.3h4.2c0.3,0.1,0.5,0.3,0.7,0.5c0.2,0.2,0.3,0.3,0.3,0.5v10c-0.6,0.3-1.2,0.5-1.6,0.5
				c-0.2,0.1-0.3,0.2-0.5,0.5c-0.1,0.3-0.3,0.6-0.3,0.9c0,0.1-0.1,0.3-0.1,0.4c0,0.1-0.1,0.3-0.1,0.4c0,0.1-0.1,0.4-0.1,0.8
				c0,0.4-0.1,0.9-0.1,1.6c0,0.1,0,0.3,0,0.5V68v2.2v0.5c0,0.2,0,0.4,0,0.6c0.1,1.5,0.2,2.4,0.3,2.6c0.1,0.1,0.1,0.2,0.2,0.4
				c0.1,0.1,0.2,0.3,0.3,0.5c0.2,0.3,0.5,0.6,0.7,0.8c0.2,0.2,0.5,0.4,0.6,0.5c0.2,0.1,0.3,0.2,0.5,0.2c0.1,0,0.2,0.1,0.2,0.2v10
				c0,0.1,0,0.1-0.2,0.2c-0.1,0.1-0.2,0.1-0.3,0.2c-0.1,0.1-0.3,0.2-0.5,0.2h-4.7c-0.1,0-0.9-0.2-2.3-0.6c-1.3-0.3-2.5-0.9-3.6-1.7
				c-1.1-0.8-2-1.7-2.7-2.7c-0.7-1-1.3-2.2-1.7-3.5s-0.6-2.6-0.6-4c0-1.8,0-3.3,0-4.6c0-1.3,0-2.4,0-3.4s0-1.7,0-2.1
				c0-0.4,0-0.6,0-0.7v-0.4C149.8,62.1,150,60.8,150.4,59.6z M185.4,74.7c0,1.4-0.2,2.7-0.6,3.9c-0.4,1.3-1,2.4-1.8,3.5
				c-0.8,1-1.7,2-2.7,2.7c-1.1,0.8-2.2,1.3-3.5,1.7c-0.7,0.2-1.3,0.3-1.7,0.4c-0.4,0.1-0.6,0.1-0.7,0.1h-4.6c-0.1,0-0.3-0.1-0.6-0.2
				c-0.3-0.2-0.4-0.3-0.4-0.4v-10c0-0.1,0-0.2,0.1-0.2c0.1,0,0.2-0.1,0.3-0.1c0.1,0,0.3-0.1,0.4-0.2c0.2-0.1,0.3-0.2,0.5-0.4
				c0.2-0.2,0.5-0.5,0.7-0.9c0.2-0.4,0.4-0.6,0.5-0.8c0.1-0.2,0.2-1.1,0.3-2.6c0-0.1,0-0.3,0-0.6v-0.5V68v-0.5c0-0.2,0-0.4,0-0.5
				c0-0.7-0.1-1.2-0.1-1.6c0-0.4-0.1-0.7-0.1-0.8c-0.1-0.3-0.1-0.6-0.2-0.9s-0.2-0.7-0.4-0.9c0-0.1-0.1-0.2-0.3-0.3
				s-0.3-0.1-0.5-0.1c-0.2,0-0.4,0-0.6-0.1c-0.2,0-0.4,0-0.5-0.1c-0.1-0.1-0.1-0.2-0.1-0.3v-10c0-0.1,0.1-0.3,0.3-0.5
				s0.4-0.4,0.7-0.5h4.2c0.7,0.1,1.2,0.3,1.5,0.3c0.4,0.1,0.8,0.2,1.3,0.4c1.2,0.4,2.4,1,3.4,1.8s2,1.7,2.7,2.7
				c0.8,1,1.4,2.2,1.8,3.4s0.6,2.6,0.6,3.9V74.7z"/>
			<path class="st0" d="M189.5,59.6c0.4-1.3,1-2.4,1.8-3.5c0.8-1,1.7-2,2.7-2.7c1-0.8,2.2-1.4,3.5-1.8c0.5-0.2,0.9-0.3,1.3-0.4
				c0.4-0.1,0.9-0.2,1.5-0.3h4.2c0.3,0.1,0.5,0.3,0.7,0.5c0.2,0.2,0.3,0.3,0.3,0.5v10c-0.6,0.3-1.2,0.5-1.6,0.5
				c-0.2,0.1-0.3,0.2-0.5,0.5c-0.1,0.3-0.3,0.6-0.3,0.9c0,0.1-0.1,0.3-0.1,0.4c0,0.1-0.1,0.3-0.1,0.4c0,0.1-0.1,0.4-0.1,0.8
				c0,0.4-0.1,0.9-0.1,1.6c0,0.1,0,0.3,0,0.5V68v2.2v0.5c0,0.2,0,0.4,0,0.6c0.1,1.5,0.2,2.4,0.3,2.6c0.1,0.1,0.1,0.2,0.2,0.4
				c0.1,0.1,0.2,0.3,0.3,0.5c0.2,0.3,0.5,0.6,0.7,0.8c0.2,0.2,0.5,0.4,0.6,0.5c0.2,0.1,0.3,0.2,0.5,0.2c0.1,0,0.2,0.1,0.2,0.2v10
				c0,0.1,0,0.1-0.2,0.2c-0.1,0.1-0.2,0.1-0.3,0.2c-0.1,0.1-0.3,0.2-0.5,0.2h-4.7c-0.1,0-0.9-0.2-2.3-0.6c-1.3-0.3-2.5-0.9-3.6-1.7
				c-1.1-0.8-2-1.7-2.7-2.7c-0.7-1-1.3-2.2-1.7-3.5s-0.6-2.6-0.6-4c0-1.8,0-3.3,0-4.6c0-1.3,0-2.4,0-3.4s0-1.7,0-2.1
				c0-0.4,0-0.6,0-0.7v-0.4C188.8,62.1,189.1,60.8,189.5,59.6z M224.4,74.7c0,1.4-0.2,2.7-0.6,3.9c-0.4,1.3-1,2.4-1.8,3.5
				c-0.8,1-1.7,2-2.7,2.7c-1.1,0.8-2.2,1.3-3.5,1.7c-0.7,0.2-1.3,0.3-1.7,0.4c-0.4,0.1-0.6,0.1-0.7,0.1h-4.6c-0.1,0-0.3-0.1-0.6-0.2
				c-0.3-0.2-0.4-0.3-0.4-0.4v-10c0-0.1,0-0.2,0.1-0.2c0.1,0,0.2-0.1,0.3-0.1c0.1,0,0.3-0.1,0.4-0.2c0.2-0.1,0.3-0.2,0.5-0.4
				c0.2-0.2,0.5-0.5,0.7-0.9c0.2-0.4,0.4-0.6,0.5-0.8c0.1-0.2,0.2-1.1,0.3-2.6c0-0.1,0-0.3,0-0.6v-0.5V68v-0.5c0-0.2,0-0.4,0-0.5
				c0-0.7-0.1-1.2-0.1-1.6c0-0.4-0.1-0.7-0.1-0.8c-0.1-0.3-0.1-0.6-0.2-0.9s-0.2-0.7-0.4-0.9c0-0.1-0.1-0.2-0.3-0.3
				s-0.3-0.1-0.5-0.1c-0.2,0-0.4,0-0.6-0.1c-0.2,0-0.4,0-0.5-0.1c-0.1-0.1-0.1-0.2-0.1-0.3v-10c0-0.1,0.1-0.3,0.3-0.5
				s0.4-0.4,0.7-0.5h4.2c0.7,0.1,1.2,0.3,1.5,0.3c0.4,0.1,0.8,0.2,1.3,0.4c1.2,0.4,2.4,1,3.4,1.8s2,1.7,2.7,2.7
				c0.8,1,1.4,2.2,1.8,3.4s0.6,2.6,0.6,3.9V74.7z"/>
			<path class="st0" d="M228.5,51.6c0.2-0.3,0.5-0.5,0.8-0.8h5.5h4.3c0.3,0.1,0.6,0.4,1,0.7c0.4,0.3,0.6,0.6,0.8,0.9v34.2
				c0,0.1-0.1,0.2-0.4,0.3c-0.2,0.1-0.4,0.1-0.4,0.1H229c-0.2,0-0.5-0.1-0.7-0.4c-0.2-0.2-0.4-0.5-0.4-0.7V52.9
				C228.1,52.3,228.3,51.9,228.5,51.6z M243.4,86.7c-0.2-0.1-0.4-0.3-0.4-0.4V75.8c0-0.1,0.1-0.3,0.2-0.4c0.2-0.1,0.3-0.2,0.6-0.2
				c0.2-0.1,0.4-0.1,0.6-0.1c0.2,0,0.3,0,0.4,0h7.9c0.5,0,1,0.1,1.3,0.3c0.3,0.2,0.5,0.6,0.5,1.1v9.8c0,0.1-0.1,0.3-0.2,0.4
				c-0.1,0.1-0.3,0.2-0.5,0.2c-0.2,0.1-0.4,0.1-0.5,0.1c-0.2,0-0.3,0-0.5,0h-8.5c0,0-0.1,0-0.2-0.1c-0.1,0-0.2-0.1-0.3-0.1
				C243.9,86.9,243.7,86.8,243.4,86.7z"/>
			<path class="st0" d="M278,71.7l-0.5-0.5h-12.2c-0.5-0.3-1.1-0.7-1.7-1c-0.6-0.3-1.2-0.7-1.7-1c-0.5-0.3-1-0.8-1.4-1.4
				c-0.5-0.6-0.9-1.2-1.2-1.9s-0.6-1.4-0.8-2.1c-0.2-0.7-0.3-1.3-0.3-1.9c0.1-2,0.7-3.7,1.8-5.3c1.1-1.6,2.5-2.8,4.3-3.8
				c0.5-0.3,1.2-0.5,2-0.8c0.4-0.1,0.7-0.3,1.1-0.4c0.3-0.1,0.7-0.2,1.1-0.3c0.4-0.1,0.9-0.2,1.4-0.2c0.5-0.1,1.1-0.2,1.9-0.2h3.1
				v15.5H285c0.8,0.1,1.7,0.4,2.7,0.9c1,0.5,1.9,1.2,2.8,2c0.9,0.8,1.6,1.6,2.2,2.5c0.6,0.9,0.9,1.7,0.9,2.5V78
				c-0.1,0.2-0.1,0.4-0.2,0.6s-0.1,0.4-0.1,0.6c0,0.2-0.1,0.6-0.3,1.3c-0.2,0.6-0.4,1.2-0.7,1.6c-0.7,1.1-1.7,2-3,2.6
				c-1.2,0.6-2.6,1.1-4.1,1.5c-0.8,0.2-1.7,0.4-2.5,0.6c-0.8,0.2-1.7,0.3-2.6,0.3h-0.3h-0.5c-0.1,0-0.1,0-0.3,0
				c-0.1,0-0.2,0-0.4-0.1c-0.3-0.1-0.6-0.2-0.7-0.4c-0.1-0.1-0.2-0.2-0.2-0.3V71.7z M258.1,74.8c0-0.1,0-0.2,0-0.3s0.1-0.3,0.1-0.5
				c0-0.2,0.1-0.3,0.2-0.4c0.1-0.1,0.2-0.2,0.3-0.2h12.5c0.3,0,0.5,0.1,0.6,0.2c0.1,0.1,0.2,0.4,0.4,0.6c0.3,0.6,0.7,1,1.1,1.4
				c0.2,0.1,0.5,0.3,0.8,0.3c0.3,0.1,0.6,0.1,0.9,0.2s0.5,0.1,0.7,0.1c0.2,0,0.2,0.1,0.2,0.2v10c0,0.1,0,0.1-0.2,0.2
				c-0.1,0.1-0.2,0.1-0.3,0.2c-0.1,0.1-0.2,0.1-0.3,0.2s-0.2,0.1-0.2,0.1h-5c-0.1,0-0.3,0-0.7-0.1s-1-0.2-1.8-0.4
				c-1.4-0.3-2.6-0.9-3.8-1.7c-1.1-0.8-2.1-1.7-3-2.8s-1.5-2.2-1.9-3.5C258.3,77.4,258.1,76.1,258.1,74.8z M276.6,50.8h4.6
				c0.5,0.1,1.4,0.3,2.5,0.8s1.9,0.8,2.4,1.1c0.5,0.3,1,0.7,1.5,1.1c0.7,0.5,1.4,1.2,2,1.8s1.1,1.3,1.4,2c0.3,0.4,0.5,0.7,0.6,0.9
				c0.1,0.2,0.2,0.5,0.3,0.8v4.5H281c-0.4-0.9-0.8-1.5-1.1-1.8s-0.7-0.6-1.2-0.8c-0.2-0.1-0.4-0.2-0.6-0.2s-0.5-0.1-0.7-0.1
				c-0.2,0-0.4-0.1-0.6-0.2c-0.2-0.1-0.3-0.2-0.3-0.4V50.8z"/>
		</g>
	</g>
</g>
</svg>
